<?xml version="1.0" encoding="utf-8"?>
<!-- Generator: Adobe Illustrator 19.2.1, SVG Export Plug-In . SVG Version: 6.00 Build 0)  -->
<svg version="1.1" id="Слой_1" xmlns:ev="http://www.w3.org/2001/xml-events"
	 xmlns="http://www.w3.org/2000/svg" xmlns:xlink="http://www.w3.org/1999/xlink" x="0px" y="0px" viewBox="0 0 44 64"
	 enable-background="new 0 0 44 64" xml:space="preserve">
<path fill="#24BC52" d="M36.6,63.3H7.2c-3.8,0-6.8-3.1-6.8-6.8V32.1c0-3.6,2.8-6.6,6.4-6.8V11.7C6.8,5.8,11.6,1,17.5,1h8.9
	c5.9,0,10.7,4.8,10.7,10.7v3.5c0,0.1,0,0.1,0,0.2c0,0.1,0,0.1,0,0.2c0,0.8-0.7,1.5-1.5,1.5h-5.2c-0.8,0-1.5-0.7-1.5-1.5
	c0-0.1,0-0.1,0-0.2c0-0.1,0-0.1,0-0.2v-3.1c0-1.7-1.4-3-3-3h-8c-1.7,0-3,1.4-3,3v13.2h20.7h1c3.8,0,6.8,3.1,6.8,6.8v24.4
	C43.5,60.3,40.4,63.3,36.6,63.3z M17.9,6.1h8c3.3,0,6,2.7,6,6v2.1h2.2v-2.5c0-4.3-3.5-7.7-7.7-7.7h-8.9c-4.3,0-7.7,3.5-7.7,7.7v13.6
	h2.2V12.1C11.9,8.8,14.6,6.1,17.9,6.1z M40.5,32.1c0-2.1-1.7-3.9-3.9-3.9h-1H8.3h-1c-2.1,0-3.9,1.7-3.9,3.9v24.4
	c0,2.1,1.7,3.9,3.9,3.9h29.4c2.1,0,3.9-1.7,3.9-3.9V32.1z M37.4,58.3c-1.3,0-1.3-2.1,0-2.1C38.7,56.2,38.7,58.3,37.4,58.3z
	 M37.3,32.1c-1.3,0-1.3-2.1,0-2.1C38.7,30.1,38.7,32.1,37.3,32.1z M23.3,44.3v6.9c0,0.8-0.7,1.5-1.5,1.5c-0.8,0-1.5-0.7-1.5-1.5v-7
	c-2.1-0.7-3.6-2.7-3.6-5c0-2.9,2.4-5.3,5.3-5.3c2.9,0,5.3,2.4,5.3,5.3C27.2,41.6,25.5,43.7,23.3,44.3z M21.9,36.8
	c-1.3,0-2.3,1-2.3,2.3c0,1.3,1,2.3,2.3,2.3c1.3,0,2.3-1,2.3-2.3C24.2,37.9,23.2,36.8,21.9,36.8z M6.5,58.3c-1.3,0-1.3-2.1,0-2.1
	C7.8,56.2,7.8,58.3,6.5,58.3z M6.4,32.1c-1.3,0-1.3-2.1,0-2.1C7.7,30.1,7.7,32.1,6.4,32.1z"/>
</svg>
