<?xml version="1.0" encoding="utf-8"?>
<!-- Generator: Adobe Illustrator 19.2.1, SVG Export Plug-In . SVG Version: 6.00 Build 0)  -->
<svg version="1.1" id="Слой_1" xmlns:ev="http://www.w3.org/2001/xml-events"
	 xmlns="http://www.w3.org/2000/svg" xmlns:xlink="http://www.w3.org/1999/xlink" x="0px" y="0px" viewBox="0 0 94 89"
	 enable-background="new 0 0 94 89" xml:space="preserve">
<path fill="#24BC52" d="M19.6,16.4c-1.1,1.9-2.7,4.3-5.8,4c0.4,1.8,2,6,4.1,6c-0.5-0.9-2.1-2.2-1-3.7l2.6-3.1
	c0.9,0.4,2.4,1.7,3.2,2.3c1.3,1,1.9,1.2,2.4,3.4l-6.8,4.4c-1.5,1.1-2.2,1.1-2.1,3.5c0,1.8,0.3,3.7,0.1,5.5L0.3,40.5l18.5,0.2
	c-0.4-6.1-1.1-7.2,1.4-9.1c13.1-9.4,26-13.4,41.7-6.9c5.8,2.4,9.6,5.3,13.8,8.2l-0.3,7.8l18.3,0l-15.9-1.9l0.2-7.5
	c-0.8-0.3-1.5-1-2.1-1.5L69,25.4c1-3.3,3.4-3.9,5.4-5.7l2.7,2.9c0.6,0.7,0.7,1,0.3,1.9l-1.2,2c2.3-0.4,3.6-4,4.1-6.1
	c-3.3,0.1-4.5-2-5.8-4.1c0.5-1.3,4.3-7,5.4-8.6c1.3-2.1,1.5-2.8,2.7-3.6c0.6-0.1,1.1-0.6,1.3-1.3c0.2-0.6,0-1.2-0.5-1.6
	C83,1,82.6,0.8,82.2,0.8c-0.2,0-0.5,0.1-0.7,0.1C81.3,1,81.2,1,81,1c-0.1,0.2-0.1,0.3-0.2,0.4c-0.2,0.3-0.3,0.6-0.3,1
	c0,0.2,0,0.3,0.1,0.4c0,0.1,0,0.2-0.1,0.3l-5.9,8.2c-0.8,1.1-1.4,2.2-2.4,3.3c-3.4-0.3-4.7-1.4-6-3.8c-1.4,0.7-4.2,3.3-4.2,5.9
	l0.7-0.7c0.3-0.4,0.2-0.3,0.6-0.8c1.3-1.5,2.6-0.6,5.8,0.7c-0.2,1.2-1.1,4.1-1.5,5.4c-0.5,1.5-0.7,2-1.5,2.4
	c-1.9,0.1-5.7-3-13.6-4.2c-10.8-1.7-16,1.5-24.1,4.2c-1-1.3-1.5-1.1-2.1-3.3c-0.4-1.4-0.9-2.9-1.2-4.2c0.7-0.6,2.7-1.3,3.7-1.5
	c1.9-0.5,2.3,0.9,3.1,2.1l0.2-0.4c0.3-1.7,0.1,1.4,0.1-0.4c0-0.4-0.1-0.7-0.3-1c-0.6-1.1-2.8-3.1-3.7-4C28,11,28,11,28,11.1
	l-0.3,0.5c-0.4,0.6,0,0.2-0.5,0.8c-1.2,1.4-3.1,2.1-5,2.3l-5.4-7.2c-0.9-1.3-1.8-2.3-2.7-3.6c-0.3-0.4-0.4-1-0.6-1.6
	c0-0.5-0.2-1-0.6-1.3c-0.2-0.2-0.4-0.3-0.7-0.3c-0.1,0-0.2,0-0.4,0c-0.9,0-1.7,0.7-1.7,1.7c0,0.7,0.5,1.4,1.2,1.6l0,0
	c1.3,0.7,0.5-0.1,2.1,2.5L19.6,16.4z M7.5,64.3c1.7,0.8,12.2,1.5,15,1.8c1.9,0.2,1.8-0.1,2.7,1.4c1.9,3.2,4.4,5.9,5.1,7.2l-6.5,14.1
	l9.9-10.6c0.7,0.3,9.8,8.3,13.4,8.2c3.1-0.1,11.7-6.8,13.1-8.1l10.2,10.5c-1.7-4.5-4.9-10.3-6.6-14.3l3.1-3.9c0.9-1.2,2.1-3,2.7-4.2
	l17.5-2l-18.7-0.1c-2.2,6.7-16.2,19.6-21.4,19.7c-1.9,0.1-8.1-4.1-9.9-5.6c-3.9-3.4-10-9.5-11.6-14.1L7.5,64.3z"/>
</svg>
