<?xml version="1.0" ?><!DOCTYPE svg  PUBLIC '-//W3C//DTD SVG 1.1//EN'  'http://www.w3.org/Graphics/SVG/1.1/DTD/svg11.dtd'><svg enable-background="new 0 0 512 512" height="512px" id="Layer_1" version="1.1" viewBox="0 0 512 512" width="512px" xml:space="preserve" xmlns="http://www.w3.org/2000/svg" xmlns:xlink="http://www.w3.org/1999/xlink"><path d="M492.549,311.067c3.621-16.627,5.53-33.82,5.53-51.499c0-132.493-107.381-239.922-239.875-239.922  c-13.979,0-27.686,1.222-41.022,3.507C195.75,9.632,170.375,1.786,143.173,1.786C66.341,1.786,4.056,64.093,4.056,140.951  c0,25.68,6.989,49.716,19.121,70.374c-3.19,15.578-4.847,31.724-4.847,48.243c0,132.538,107.391,239.944,239.875,239.944  c15.018,0,29.688-1.388,43.922-4.01C321.717,506.02,344.102,512,367.895,512C444.727,512,507,449.716,507,372.857  C507,350.663,501.795,329.69,492.549,311.067z M381.243,374.238c-11.094,15.707-27.494,28.154-48.747,36.993  c-21.03,8.732-46.249,13.182-74.952,13.182c-34.452,0-63.346-6.063-85.889-18.032c-16.119-8.688-29.405-20.467-39.501-35.058  c-10.18-14.678-15.342-29.266-15.342-43.355c0-8.772,3.357-16.396,9.99-22.625c6.57-6.201,14.997-9.324,25.041-9.324  c8.25,0,15.364,2.457,21.137,7.326c5.521,4.7,10.252,11.627,14.063,20.572c4.262,9.76,8.879,17.971,13.769,24.421  c4.724,6.251,11.481,11.479,20.128,15.574c8.691,4.116,20.425,6.214,34.845,6.214c19.823,0,36.09-4.242,48.317-12.598  c11.953-8.146,17.745-17.948,17.745-29.934c0-9.472-3.033-16.902-9.257-22.76c-6.538-6.105-15.145-10.829-25.595-14.13  c-10.905-3.379-25.713-7.074-44.015-10.919c-24.893-5.309-46.041-11.648-62.864-18.789c-17.211-7.326-31.074-17.487-41.211-30.171  c-10.297-12.907-15.523-29.053-15.523-48.098c0-18.114,5.478-34.467,16.289-48.539c10.723-14,26.393-24.896,46.564-32.326  c19.907-7.37,43.582-11.106,70.388-11.106c21.417,0,40.245,2.496,55.966,7.365c15.827,4.916,29.145,11.568,39.629,19.758  c10.546,8.252,18.396,17.047,23.329,26.222c4.952,9.234,7.494,18.455,7.494,27.356c0,8.584-3.316,16.371-9.847,23.172  c-6.569,6.827-14.858,10.287-24.629,10.287c-8.88,0-15.838-2.178-20.666-6.417c-4.493-3.991-9.149-10.187-14.313-19.089  c-5.983-11.354-13.225-20.318-21.525-26.64c-8.067-6.155-21.545-9.238-40.056-9.238c-17.191,0-31.182,3.441-41.561,10.265  c-10.01,6.554-14.88,14.067-14.88,22.992c0,5.479,1.573,10.036,4.806,13.957c3.4,4.198,8.217,7.813,14.293,10.877  c6.297,3.171,12.803,5.689,19.301,7.473c6.664,1.872,17.85,4.601,33.193,8.148c19.416,4.176,37.257,8.839,53.029,13.898  c15.982,5.121,29.772,11.398,41.045,18.745c11.479,7.477,20.579,17.066,27.034,28.556c6.486,11.523,9.759,25.736,9.759,42.259  C398.023,340.459,392.368,358.491,381.243,374.238z" fill="#424852"/></svg>