<?xml version="1.0" encoding="utf-8"?>
<!-- Generator: Adobe Illustrator 21.1.0, SVG Export Plug-In . SVG Version: 6.00 Build 0)  -->
<svg version="1.1" id="Слой_1" xmlns="http://www.w3.org/2000/svg" xmlns:xlink="http://www.w3.org/1999/xlink" x="0px" y="0px"
	 viewBox="0 0 164.1 38.5" enable-background="new 0 0 164.1 38.5" xml:space="preserve">
<path fill="#054D29" d="M55.7,15.1h-0.5c-0.8,1.5-1.9,3.4-3.1,5.7s-2.6,4.8-4,7.4c-1.2-2.1-2.4-4.1-3.4-6c-1-1.9-2.3-4.3-3.7-7.1
	l-0.6,0c0,0.6-0.2,1.6-0.4,3.2c-0.2,1.6-0.4,3.2-0.7,5c-0.3,1.8-0.5,3.5-0.8,5.1c-0.2,1.6-0.4,2.9-0.6,3.7c0.1,0,0.2,0,0.3,0
	c0.1,0,0.2,0,0.3,0c0.1,0,0.2,0,0.3,0c0.2,0,0.3,0,0.4,0c0.1,0,0.3,0,0.4,0.1c0-1,0.1-2.1,0.2-3.4c0.1-1.3,0.3-2.5,0.4-3.7
	c0.1-1.2,0.3-3.1,0.7-5.7c0.9,1.6,1.8,3.3,2.7,5.1c1,1.8,1.7,3.3,2.3,4.6l1.4,2.8h0.3c0.7-1.6,1.6-3.5,2.7-5.6
	c1.1-2.2,2.4-4.5,3.8-6.9c0.3,1.8,0.7,6.1,1.3,12.8c0.2,0,0.4,0,0.6,0c0.2,0,0.4,0,0.6,0c0.2,0,0.3,0,0.3,0c0.1,0,0.2,0,0.3,0
	c0.2,0,0.3,0,0.5,0.1C57.2,28.1,56.5,22.4,55.7,15.1"/>
<path fill="#054D29" d="M62.1,26.4c0-1,0.1-1.9,0.4-2.7c0.3-0.8,0.7-1.5,1.3-2.1c0.6-0.5,1.4-0.8,2.4-0.8c0.8,0,1.5,0.3,2.1,0.8
	c0.5,0.5,0.9,1.2,1.2,2c0.2,0.8,0.4,1.6,0.4,2.4c0,1.3-0.3,2.5-1,3.7c-0.6,1.2-1.6,1.8-2.9,1.8c-1.3,0-2.3-0.5-2.9-1.5
	C62.5,29,62.1,27.8,62.1,26.4 M66.2,20.1c-1.2,0-2.3,0.3-3.2,0.8c-1,0.5-1.7,1.2-2.2,2.1c-0.5,0.9-0.8,1.9-0.8,3.1
	c0,1.2,0.1,2.3,0.6,3.3c0.5,0.9,1.2,1.7,2.1,2.2c1,0.5,2,0.8,3.1,0.8c1.3,0,2.5-0.3,3.4-0.9c1-0.6,1.6-1.3,2.1-2.3
	c0.4-0.9,0.7-1.9,0.7-3c0-1.8-0.5-3.3-1.6-4.4C69.4,20.6,68,20.1,66.2,20.1z"/>
<path fill="#054D29" d="M74.7,20.2v11.9c0.2,0,0.3,0,0.5-0.1c0.1,0,0.3,0,0.5,0c0.1,0,0.2,0,0.3,0c0.1,0,0.2,0,0.3,0.1
	c0.1,0,0.2,0,0.3,0v-5.8c0-1.6,0.2-2.9,0.7-3.7c0.5-0.8,1.3-1.2,2.5-1.2c1.1,0,1.8,0.3,2.2,1c0.4,0.7,0.6,1.7,0.6,3.1v6.6
	c0.1,0,0.2,0,0.3,0c0.1,0,0.2,0,0.3,0c0.1,0,0.2,0,0.4,0c0.1,0,0.2,0,0.3,0c0.1,0,0.2,0,0.3,0.1c0.1,0,0.2,0,0.3,0v-7.2
	c0-1.7-0.3-2.9-0.9-3.7c-0.6-0.8-1.6-1.2-3.1-1.2c-1.7,0-3.1,0.8-4,2.4l0-2.2c-0.1,0-0.3,0-0.5,0c-0.2,0-0.4,0-0.5,0.1
	c-0.2,0-0.3-0.1-0.5-0.1C75,20.2,74.8,20.2,74.7,20.2"/>
<path fill="#054D29" d="M96.3,25.2h-6.6c0.1-1.2,0.4-2.2,1-3.1c0.6-0.9,1.4-1.3,2.5-1.3C95.2,20.8,96.2,22.3,96.3,25.2 M97.6,30.8
	l0-1.3c-1.2,1.1-2.4,1.7-3.7,1.7c-1.4,0-2.5-0.5-3.3-1.5c-0.8-1-1.1-2.2-1-3.7l3.5,0c1.6,0,3.3,0,5.1,0.1c0.1-1.3-0.1-2.5-0.6-3.4
	c-0.4-0.9-1.1-1.6-1.9-2c-0.8-0.4-1.7-0.7-2.6-0.7c-1.8,0-3.2,0.6-4.2,1.7c-1,1.1-1.5,2.6-1.5,4.4c0,1.9,0.6,3.4,1.6,4.5
	c1.1,1.1,2.5,1.7,4.2,1.7C94.8,32.3,96.2,31.8,97.6,30.8z"/>
<path fill="#054D29" d="M99.7,20.2l5,11.8c-0.6,1.2-1.7,3.3-3.3,6.5c0.4-0.1,0.6-0.1,0.8-0.1c0.2,0,0.4,0,0.8,0.1
	c0.4-1,1-2.4,1.7-4.1c0.7-1.7,1.5-3.4,2.1-4.9c0.7-1.5,1.4-3,2.1-4.5s1.4-3.1,2.1-4.7c-0.1,0-0.2,0-0.4,0c-0.2,0-0.3,0-0.4,0.1
	c-0.1,0-0.3-0.1-0.4-0.1c-0.2,0-0.3,0-0.4,0c-1.5,4.3-2.8,7.3-3.7,9.2c-0.5-1-1-2.1-1.4-3.1c-0.4-1-0.8-2-1.2-3
	c-0.4-1-0.7-2-1.1-3.1c-0.2,0-0.3,0-0.6,0c-0.2,0-0.4,0-0.6,0.1c-0.2,0-0.4-0.1-0.7-0.1C100,20.2,99.8,20.2,99.7,20.2"/>
<path fill="#054D29" d="M119.6,32.1V16.3c1.8,0,3.5,0.1,5.2,0.3c0-0.5-0.1-0.7-0.1-0.8c0-0.1,0-0.3,0.1-0.4c0-0.1,0-0.2,0-0.3H112
	c0,0.1,0,0.2,0.1,0.3c0,0.1,0,0.3,0,0.4c0,0,0,0.3-0.1,0.7c1.9-0.2,3.7-0.3,5.4-0.3v15.8c0.2,0,0.3,0,0.5-0.1c0.2,0,0.4,0,0.6,0
	c0.2,0,0.4,0,0.6,0C119.3,32.1,119.4,32.1,119.6,32.1"/>
<path fill="#054D29" d="M134.9,25.2h-6.6c0.1-1.2,0.4-2.2,1-3.1c0.6-0.9,1.4-1.3,2.5-1.3C133.9,20.8,134.9,22.3,134.9,25.2
	 M136.3,30.8l0-1.3c-1.2,1.1-2.4,1.7-3.7,1.7c-1.4,0-2.5-0.5-3.3-1.5c-0.8-1-1.1-2.2-1-3.7l3.5,0c1.6,0,3.3,0,5.1,0.1
	c0.1-1.3-0.1-2.5-0.6-3.4c-0.4-0.9-1.1-1.6-1.9-2c-0.8-0.4-1.7-0.7-2.6-0.7c-1.8,0-3.2,0.6-4.2,1.7c-1,1.1-1.5,2.6-1.5,4.4
	c0,1.9,0.6,3.4,1.6,4.5c1.1,1.1,2.5,1.7,4.2,1.7C133.5,32.3,134.9,31.8,136.3,30.8z"/>
<path fill="#054D29" d="M148.5,22.7l0.6-1.6c-1.1-0.7-2.4-1-3.9-1c-1.3,0-2.4,0.2-3.3,0.7c-1,0.5-1.7,1.2-2.3,2.1
	c-0.6,0.9-0.8,2-0.8,3.3c0,1.8,0.6,3.3,1.7,4.4c1.1,1.2,2.7,1.7,4.7,1.7c1.4,0,2.7-0.4,3.8-1.2l0.1-1.2l-0.1-0.1
	c-0.6,0.6-1.2,1-1.7,1.3c-0.5,0.3-1.1,0.4-1.8,0.4c-1.3,0-2.4-0.6-3.3-1.6c-0.9-1-1.3-2.3-1.3-3.9c0-1.4,0.4-2.6,1.1-3.6
	c0.8-1,1.8-1.6,3.2-1.5c0.4,0,0.8,0.1,1.3,0.3c0.5,0.2,0.9,0.4,1.1,0.7c0.2,0.1,0.4,0.4,0.7,0.8H148.5z"/>
<path fill="#054D29" d="M152.1,13.4v18.7c0.2,0,0.3,0,0.5-0.1c0.1,0,0.3,0,0.5,0c0.1,0,0.2,0,0.3,0c0.1,0,0.2,0,0.3,0.1
	c0.1,0,0.2,0,0.3,0v-6.7c0-2.7,1.1-4,3.2-4c1,0,1.8,0.3,2.2,1c0.4,0.7,0.6,1.7,0.6,3.1v6.6c0.1,0,0.2,0,0.3,0c0.1,0,0.2,0,0.3,0
	c0.1,0,0.2,0,0.4,0c0.1,0,0.2,0,0.3,0c0.1,0,0.2,0,0.3,0.1c0.1,0,0.2,0,0.3,0v-7.2c0-1.6-0.3-2.9-0.9-3.7c-0.6-0.8-1.6-1.2-3.1-1.2
	c-1.7,0-3.1,0.8-4,2.4l0-9c-0.1,0-0.3,0-0.5,0c-0.2,0-0.4,0-0.5,0.1c-0.2,0-0.3-0.1-0.5-0.1C152.3,13.4,152.2,13.4,152.1,13.4"/>
<rect x="0.2" y="2" fill-rule="evenodd" clip-rule="evenodd" fill="#009833" width="29.9" height="29.7"/>
<path fill-rule="evenodd" clip-rule="evenodd" fill="#005E30" d="M30.1,31.7H0.2V19.1l4.7-7.2l1,0.9l9.4,9.3l9-9.3l0.9-0.6l1.1,1.2
	l0.9,0.2c0,0,2.1,3.5,1.9,3.6c-0.1,0.1,0.6,1.5,1,2.2V31.7z"/>
<polygon fill-rule="evenodd" clip-rule="evenodd" fill="#FFFFFF" points="15,19.3 7.2,11.5 5.9,12.8 13.7,20.5 "/>
<path fill-rule="evenodd" clip-rule="evenodd" fill="#FFFFFF" d="M5.8,8.7c-0.4,0.2-2,1.9-2.4,2.3c-0.7,0.7,0,1.1,0.8,2
	c0.2,0.2,0.4,0.5,0.8,0.3c0.2-0.1,2.1-2,2.4-2.3c0.7-0.7,0.2-0.9-0.2-1.4C6.9,9.3,6.2,8.5,5.8,8.7"/>
<path fill-rule="evenodd" clip-rule="evenodd" fill="#FFFFFF" d="M18.4,6.9C19,7.3,20.1,7.8,21,8.5c0.6,0.4,1.3,1,1.6,1.2
	c0.2-0.1,1-0.9,1.1-1.1c-0.8-1-6.2-2.9-7.6-2.9C16.5,5.9,17.8,6.6,18.4,6.9"/>
<path fill-rule="evenodd" clip-rule="evenodd" fill="#FFFFFF" d="M25.4,9.2c0,0.2,0.1,0.2,0.2,0.4c0.3,0.3,0.7,0.8,1,0.9
	c0.2-0.5-0.1-0.6-0.4-0.9C26.1,9.3,25.9,8.9,25.4,9.2"/>
<path fill-rule="evenodd" clip-rule="evenodd" fill="#FFFFFF" d="M27.3,12.1c-0.3,0.1-0.9,0.9-1.2,1.1c0.1,0.2,0.8,1.2,1.1,1.5
	c0.8,1.2,1.3,2,2,3.3c0.3,0.5,0.6,1.3,0.9,1.7c-0.1-1.3-1.2-4.4-1.9-5.8C28.3,13.7,27.5,12.2,27.3,12.1"/>
<path fill-rule="evenodd" clip-rule="evenodd" fill="#FFFFFF" d="M26.9,11.1c-0.4-0.5-1.4-1.4-1.9-1.9c-0.8-0.8-0.9-0.6-2.2,0.8
	c-0.3,0.3-0.3,0.6,0,0.9c0.2,0.3,2,2,2.2,2.2s0.4,0.4,0.8,0.1C26.4,12.7,27.6,11.9,26.9,11.1"/>
<path fill-rule="evenodd" clip-rule="evenodd" fill="#FFFFFF" d="M15.3,22.1c0.1,0.2,3.6,3.6,3.9,3.9c0.3,0.3,1.4,1.5,1.9,1.8
	c0.1,0.1,0.1,0.1,0.3,0c0.3-0.2,0.8-0.6,1-1c0-0.1,0.1-0.1,0-0.2l-5.8-5.8L15.3,22.1z"/>
<path fill-rule="evenodd" clip-rule="evenodd" fill="#FFFFFF" d="M6.5,8.6c0.1,0.2,0.9,1,1.1,1.1c1.2-0.8,1.7-1.3,3.1-2.1
	c0.6-0.3,1-0.6,1.6-1c0.5-0.3,1.3-0.7,1.7-0.9c-0.9,0-3.2,0.8-4.1,1.1C9.1,7.1,6.9,8.1,6.5,8.6"/>
<path fill-rule="evenodd" clip-rule="evenodd" fill="#FFFFFF" d="M0,19.7l1.9-3.3c0.3-0.5,0.7-1,1-1.6c0.2-0.3,1-1.3,1.1-1.6
	c-0.1-0.2-0.9-1-1.1-1.1c-0.5,0.5-1.5,2.7-1.8,3.4C0.8,16.4,0,18.8,0,19.7"/>
<path fill-rule="evenodd" clip-rule="evenodd" fill="#FFFFFF" d="M3.5,10.5c0.3-0.1,0.5-0.4,0.7-0.6c0.3-0.3,0.5-0.4,0.6-0.7
	C4.6,9.1,4.5,9,4.3,9.2c0,0-0.3,0.3-0.4,0.4C3.6,9.9,3.3,10,3.5,10.5"/>
<path fill-rule="evenodd" clip-rule="evenodd" fill="#FFFFFF" d="M9.4,27.7c0.5-0.4,1.3-1.3,1.6-1.6c0.7-0.7,1.3-1.3,1.9-1.9
	l7.6-7.6c0.3-0.3,0.6-0.6,0.9-0.9c1-0.9,1.9-2,2.9-2.9c-0.1-0.2-1-1.2-1.3-1.3c-1,0.9-3.2,3.1-4.1,4.1L8.2,26.4
	c-0.2,0.2-0.5,0.3-0.3,0.7c0.1,0.2,0.6,0.7,0.9,0.9C9,28.1,9.2,27.8,9.4,27.7"/>
</svg>
